<?xml version="1.0" encoding="UTF-8" standalone="no"?>
<svg
  xmlns:dc="http://purl.org/dc/elements/1.1/"
  xmlns:cc="http://creativecommons.org/ns#"
  xmlns:rdf="http://www.w3.org/1999/02/22-rdf-syntax-ns#"
  xmlns:svg="http://www.w3.org/2000/svg"
  xmlns="http://www.w3.org/2000/svg"
  xmlns:sodipodi="http://sodipodi.sourceforge.net/DTD/sodipodi-0.dtd"
  version="1.1"
  id="svg2"
  height="270"
  width="600"
  sodipodi:docname="HastiJS.svg">
  <sodipodi:namedview
    pagecolor="#ffffff"
    bordercolor="#666666"
    borderopacity="1"
    objecttolerance="10"
    gridtolerance="10"
    guidetolerance="10"
    id="namedview10"
    showgrid="false"
    fit-margin-top="0"
    fit-margin-left="0"
    fit-margin-right="0"
    fit-margin-bottom="0"
    showguides="true">
    <sodipodi:guide
      position="300,-164.99262"
      orientation="1,0"
      id="guide3336" />
    <sodipodi:guide
      position="-4.2958786e-08,135.00738"
      orientation="0,1"
      id="guide3338" />
  </sodipodi:namedview>
  <metadata
    id="metadata10">
    <rdf:RDF>
      <cc:Work
        rdf:about="">
        <dc:format>image/svg+xml</dc:format>
        <dc:type
          rdf:resource="http://purl.org/dc/dcmitype/StillImage" />
        <dc:title></dc:title>
      </cc:Work>
    </rdf:RDF>
  </metadata>
  <defs
    id="defs8" />
  <text
    id="text4186"
    y="370.77167"
    x="2.8151383"
    style="font-style:normal;font-weight:normal;font-size:40px;line-height:125%;font-family:sans-serif;letter-spacing:0px;word-spacing:0px;fill:#000000;fill-opacity:1;stroke:none;stroke-width:1px;stroke-linecap:butt;stroke-linejoin:miter;stroke-opacity:1"
    xml:space="preserve"
    sodipodi:linespacing="125%">
     <tspan
      y="370.77167"
      x="2.8151383"
      id="tspan4188" />
  </text>
  <g
    id="g3340"
    transform="translate(0,-330.00003)">
    <path
      id="text4135"
      d="m 334.33333,405.43015 c -2.48758,0 -5.09481,0.80694 -7.81933,2.42285 -2.60603,1.46901 -4.2036,3.23149 -4.79589,5.2881 -6.51512,22.91655 -12.38066,46.2745 -17.59275,70.07247 l -22.92185,3.30468 c -2.72449,0.29381 -4.97314,1.54358 -6.74998,3.74709 -1.6584,2.05661 -2.4873,4.18616 -2.4873,6.38966 0,1.90972 0.7084,3.45372 2.12988,4.62892 1.42147,1.17521 3.49521,1.54227 6.2197,1.10157 5.68593,-0.88141 10.18908,-1.46988 13.50585,-1.76368 l 6.75,-0.88184 -2.12988,9.47463 c -2.72451,11.899 -4.79824,21.81548 -6.21973,29.74814 -1.42146,7.93265 -2.13279,15.71963 -2.13279,23.35847 0,3.96633 0.1176,6.9028 0.35449,8.81253 0.59228,6.75744 2.60576,11.89921 6.041,15.42484 3.55371,3.52562 7.81875,5.2881 12.79393,5.2881 2.96142,0 5.74647,-0.51273 8.35254,-1.54102 5.56745,-2.20352 10.42334,-5.73141 14.56931,-10.57914 4.14598,-4.99463 8.82402,-11.67747 14.03611,-20.05082 0.94766,-1.46902 2.01465,-3.08584 3.19922,-4.84866 1.18456,-1.90971 2.48673,-3.89067 3.90819,-5.94727 1.18456,-1.61592 1.77834,-3.08709 1.77834,-4.40919 0,-2.79113 -2.19134,-4.18655 -6.57425,-4.18655 -1.77682,0 -3.55515,0.29424 -5.332,0.88184 -1.77686,0.58761 -3.07899,1.39749 -3.90819,2.4258 -1.42151,1.7628 -3.55254,4.9207 -6.39549,9.47463 -4.61982,7.19815 -8.41163,12.63123 -11.37305,16.30375 -2.84296,3.52562 -5.38995,5.06961 -7.64061,4.62891 -3.55372,-0.73449 -5.32911,-5.28781 -5.32911,-13.66116 0,-6.46363 0.70841,-13.36791 2.12987,-20.71294 1.4215,-7.49195 2.2504,-11.82678 2.48733,-13.00199 1.53991,-9.54857 3.31825,-19.31649 5.332,-29.30576 3.55371,-0.58759 8.88284,-1.61595 15.99023,-3.08496 2.13222,-0.58761 4.20595,-2.05585 6.2197,-4.40626 2.01377,-2.49731 3.02052,-4.77545 3.02052,-6.83205 0,-2.49732 -1.71808,-3.7471 -5.15331,-3.7471 -2.72451,2e-5 -8.23146,0.51566 -16.52343,1.54396 4.61981,-21.74134 10.36485,-44.58367 17.23535,-68.5285 0.23691,-1.1752 0.35449,-1.98508 0.35449,-2.4258 0,-1.46901 -0.5335,-2.57019 -1.59963,-3.30469 -0.94765,-0.73451 -2.18953,-1.10156 -3.72948,-1.10156 z m -232.6257,6.16994 c -2.487586,0 -5.152126,0.80694 -7.995106,2.42284 -2.84295,1.46901 -4.621275,3.2315 -5.33202,5.2881 -8.1735,23.21034 -15.458782,48.55221 -21.855441,76.02268 -12.201031,2.20351 -23.929195,5.58282 -35.182573,10.13676 6.041287,-30.84922 13.031152,-58.83331 20.967748,-83.95336 0.236913,-0.58762 0.354492,-1.39749 0.354492,-2.4258 0,-2.64421 -1.657819,-3.96681 -4.974604,-3.96681 -2.606046,0 -5.330859,0.8099 -8.173818,2.4258 -2.842959,1.469 -4.618358,3.23147 -5.329097,5.2881 -9.358072,27.47046 -17.237101,58.2454 -23.63376,92.32643 -1.895305,1.17521 -3.3752905,2.49779 -4.4414005,3.9668 -0.9476535,1.46903 -1.4208945,2.93726 -1.4208945,4.40627 0,2.49732 1.184574,4.11414 3.553704,4.84864 -2.961414,17.92191 -5.6862285,37.23929 -8.17381653,57.95232 -0.2369145,1.7628 0.118755,3.0854 1.06640403,3.9668 0.947655,0.8814 2.31006,1.32129 4.0869075,1.32129 3.0798735,0 6.217677,-1.02836 9.416007,-3.08496 3.198327,-2.05662 4.976653,-4.4804 5.332024,-7.27151 2.961416,-23.79796 5.803808,-43.63096 8.52831,-59.49625 11.490293,-4.40704 22.980369,-7.93201 34.47066,-10.57621 -5.449003,26.00147 -9.714057,52.66589 -12.79393,79.98947 -0.118455,1.61592 0.297463,2.86275 1.245117,3.74415 0.947652,0.8814 2.249806,1.32129 3.908199,1.32129 3.079872,0 6.220603,-1.02835 9.418933,-3.08496 3.198329,-2.05662 4.973726,-4.48039 5.329095,-7.27152 3.316785,-27.76426 7.521594,-53.83729 12.615219,-78.22286 l 1.954095,-0.44238 c 2.36913,-0.2938 4.9161,-1.76205 7.640625,-4.40626 2.84295,-2.64422 4.265625,-4.99518 4.265625,-7.05179 0,-2.2035 -1.95618,-3.23187 -5.86524,-3.08497 l -4.79589,0.22267 c 5.804385,-25.70766 12.61641,-50.68247 20.434546,-74.92112 0.23691,-0.58759 0.35448,-1.39453 0.35448,-2.42286 0,-2.64421 -1.65782,-3.96679 -4.9746,-3.96679 z m 465.42132,1.76367 c -13.03023,0 -25.1743,2.93649 -36.42769,8.81253 -11.13492,5.72913 -18.12186,15.20574 -20.96481,28.42683 -0.59229,2.35041 -0.89064,5.06842 -0.89064,8.15334 0,6.75745 1.89592,12.85183 5.68654,18.28717 3.79059,5.28844 8.29374,9.9175 13.50582,13.88381 5.33055,3.81944 12.37775,8.29992 21.14354,13.44146 7.1074,4.11321 12.79218,7.711 17.05662,10.79593 4.38289,3.0849 7.75878,6.31564 10.12792,9.69436 2.36912,3.52563 3.5537,7.42057 3.5537,11.68069 0,5.28843 -1.71515,10.72152 -5.15039,16.30376 -3.31677,5.58223 -7.404,10.57836 -12.26073,14.98539 -4.73827,4.40703 -9.06355,7.56493 -12.97263,9.47464 -5.09364,2.49731 -10.00977,3.74709 -14.74803,3.74709 -4.73827,0 -8.58739,-1.32261 -11.54881,-3.96682 -2.96142,-2.64422 -4.44141,-7.78601 -4.44141,-15.42485 0,-3.37872 0.23517,-7.05225 0.70899,-11.01858 0.47383,-4.11322 0.77217,-6.75547 0.89062,-7.93068 0.35537,-3.23182 -1.18486,-6.17125 -4.62012,-8.81545 -3.43524,-2.64422 -6.81112,-3.96683 -10.12791,-3.96683 -2.96142,0 -4.61923,1.24977 -4.97461,3.74709 -0.94764,9.40167 -1.4238,16.60016 -1.4238,21.5948 0,7.05123 0.94941,13.14855 2.8447,18.29007 1.89533,5.14153 5.2712,9.32779 10.12791,12.5596 10.18728,6.90435 20.84846,10.35648 31.98338,10.35648 4.73827,0 9.00333,-0.58846 12.79393,-1.76367 14.68862,-4.55394 27.48083,-16.52715 38.37885,-35.91805 C 598.45977,553.21162 600,547.62994 600,542.0477 c 0,-8.52024 -3.73157,-16.81992 -11.19432,-24.89948 -3.67217,-4.11322 -7.6418,-7.63816 -11.90624,-10.5762 -4.14597,-2.93802 -9.65293,-6.53872 -16.5234,-10.79886 -1.06612,-0.7345 -4.08634,-2.64262 -9.06153,-5.72755 -4.85673,-3.08492 -9.29959,-6.3914 -13.32712,-9.91701 -5.56746,-4.99465 -8.35254,-10.94338 -8.35254,-17.84771 0,-3.96633 0.94942,-7.85834 2.84473,-11.67777 2.01377,-3.96633 4.79591,-7.41846 8.34959,-10.35648 8.88426,-7.78574 20.79024,-11.53211 35.71579,-11.2383 l -1.24512,9.25491 c -0.47383,2.0566 -1.30275,5.14168 -2.4873,9.25489 l -2.66308,9.47465 c -0.1185,0.4407 -0.17871,1.02916 -0.17871,1.76367 0,2.79112 1.54024,5.28771 4.6201,7.49124 3.07988,2.2035 6.21768,3.30468 9.41601,3.30468 3.19833,0 5.15448,-1.24976 5.86523,-3.74706 0.23691,-0.88142 1.00557,-3.30519 2.30859,-7.27152 1.77685,-5.87604 3.08193,-10.50218 3.91111,-13.8809 0.94767,-3.52561 1.42092,-7.05058 1.42092,-10.5762 0,-5.87602 -1.60051,-10.43227 -4.79883,-13.6641 -2.84296,-2.938 -6.39667,-4.84615 -10.66111,-5.72755 -4.26446,-0.8814 -9.2379,-1.32129 -14.92382,-1.32129 z m -58.01946,0.65917 c -0.5923,0 -1.47852,0.14865 -2.66308,0.44238 -8.05505,2.49734 -15.87383,4.33263 -23.45505,5.50784 -7.58123,1.02831 -17.47373,2.1295 -29.67477,3.30469 l -11.72753,1.32129 c -1.89531,0.29381 -4.7377,1.76498 -8.52831,4.40921 -3.67215,2.4973 -5.50779,4.62685 -5.50779,6.38965 0,1.32212 1.12724,2.20188 3.37791,2.6426 5.33054,0.8814 10.71992,1.32421 16.16894,1.32421 4.50133,0 8.9413,-0.2214 13.3242,-0.6621 2.84295,23.35724 4.26561,43.04168 4.26561,59.05387 0,15.71839 -1.18458,29.82116 -3.5537,42.30774 -4.85673,25.70766 -13.50442,38.56065 -25.94235,38.56065 -1.18456,0 -2.07373,-0.0728 -2.66602,-0.21973 -6.51512,-0.8814 -12.31748,-4.11213 -17.41112,-9.69437 -4.97517,-5.72913 -8.76697,-12.48774 -11.37303,-20.27347 -0.71074,-2.05662 -2.48613,-3.08498 -5.32909,-3.08498 -2.13222,0 -4.44404,0.58847 -6.93164,1.76367 -2.48757,1.17522 -4.50108,2.71629 -6.04099,4.62599 -1.53995,1.76283 -2.01318,3.45247 -1.42091,5.06838 3.5537,10.87066 9.53684,19.83165 17.94725,26.88288 8.41042,7.05124 17.53135,10.57914 27.36324,10.57914 6.39667,0 12.67519,-1.61682 18.83493,-4.84865 6.15978,-3.37873 11.90481,-8.52049 17.23536,-15.42486 6.27819,-8.07954 10.71816,-17.62899 13.32418,-28.64655 2.60606,-11.16447 4.38438,-23.57757 5.33204,-37.23936 0.35536,-5.72915 0.5332,-11.31081 0.5332,-16.74615 0,-8.52024 -0.29541,-16.89275 -0.8877,-25.1192 -0.59229,-8.37336 -1.48144,-18.72975 -2.66601,-31.06943 5.92284,-1.46901 13.26543,-3.52573 22.03122,-6.16993 7.46277,-2.79113 11.19432,-6.24326 11.19432,-10.35648 0,-1.61591 -0.5335,-2.79284 -1.59961,-3.52736 -0.94764,-0.7345 -2.13222,-1.10157 -3.5537,-1.10157 z m -117.8817,19.64069 c -0.0225,0.11805 -0.0356,0.23742 -0.0468,0.35742 0.0171,-0.0444 0.0616,-0.11715 0.0732,-0.15234 0.0216,-0.0653 -0.0135,-0.27263 -0.0264,-0.20508 z m -155.80351,18.70024 c -8.17352,0 -15.81446,2.64519 -22.92185,7.93362 -7.1074,5.14154 -11.96329,12.48569 -14.56931,22.03426 -1.18457,3.9663 -1.77833,7.93408 -1.77833,11.90041 0,6.31674 1.42266,12.04406 4.26561,17.18559 2.84298,4.99464 6.21888,9.32948 10.12792,13.00199 4.02755,3.52563 9.12149,7.63905 15.28124,12.33989 l 6.74998,5.28808 c 9.8319,7.93266 14.98613,15.05832 15.45996,21.37506 0.35537,4.70084 -0.77188,7.93157 -3.37794,9.69437 -2.60604,1.76281 -6.03927,2.64553 -10.30369,2.64553 -2.36913,-10e-6 -4.02695,-0.0757 -4.97459,-0.22266 -7.81815,-0.58762 -13.50588,-2.12868 -17.05956,-4.626 -1.30302,-0.8814 -3.07842,-2.57106 -5.32909,-5.06836 -2.25069,-2.49734 -3.37793,-4.62686 -3.37793,-6.38967 0,-0.88142 0.35565,-1.54271 1.0664,-1.98341 3.43524,-2.49732 5.15332,-5.06674 5.15332,-7.71096 0,-1.46901 -0.65109,-2.71878 -1.95411,-3.74709 -1.18455,-1.02829 -2.72481,-1.54393 -4.6201,-1.54393 -2.01377,0 -4.0875,0.66129 -6.21972,1.98339 -7.69969,5.14153 -11.54881,10.79896 -11.54881,16.96879 0,3.96633 1.3624,7.85835 4.0869,11.67777 2.84296,3.67253 6.33645,6.83043 10.4824,9.47465 4.26444,2.49732 8.35167,4.18696 12.26074,5.06836 3.31677,0.73451 7.16591,1.10157 11.54882,1.10157 11.13492,0 21.08769,-2.20236 29.85346,-6.60939 8.76581,-4.55394 13.14845,-11.97384 13.14845,-22.25689 0,-1.32212 -0.23811,-3.45167 -0.71193,-6.38967 -1.30304,-6.61055 -4.02783,-12.11939 -8.17382,-16.52642 -4.02753,-4.40703 -9.89014,-9.3274 -17.58981,-14.76273 -5.68593,-3.96631 -10.18906,-7.41846 -13.50586,-10.35648 -3.31677,-2.93802 -6.15917,-6.53873 -8.5283,-10.79886 -2.25069,-4.26012 -3.375,-9.1805 -3.375,-14.76273 0,-6.16983 1.42265,-11.09021 4.26561,-14.76274 2.96142,-3.81943 6.57248,-5.73049 10.83692,-5.73049 1.06609,0 2.66659,0.29424 4.79881,0.88183 3.90906,1.32212 6.86904,3.67307 8.88281,7.05179 2.01376,3.37872 3.0205,7.49216 3.0205,12.33989 0,3.08491 -0.35566,6.16998 -1.06641,9.25489 -0.4738,1.61592 -0.29598,2.86275 0.53321,3.74415 0.94765,0.88142 2.25273,1.32423 3.91111,1.32423 2.72453,0 5.62422,-0.95553 8.70411,-2.86524 3.07988,-1.90972 4.8582,-4.18783 5.33202,-6.83206 0.71073,-3.52562 1.0664,-6.82917 1.0664,-9.91407 0,-9.69548 -2.90264,-17.18821 -8.70701,-22.47664 -5.68591,-5.28843 -12.73312,-7.93362 -21.14353,-7.93362 z m -69.24601,3.52736 c -15.51783,0 -31.45078,15.27678 -47.7978,45.83216 -0.94767,1.90971 -1.4209,3.45372 -1.4209,4.62892 0,1.469 0.53349,2.57018 1.59961,3.3047 1.18457,0.7345 2.60723,1.10157 4.26561,1.10157 2.25069,0 4.442,-0.51564 6.57423,-1.54397 2.25066,-1.02831 3.84822,-2.35089 4.79588,-3.96679 6.51513,-10.57688 11.96476,-18.50949 16.34764,-23.79792 4.85673,-6.02296 8.17236,-9.03226 9.94921,-9.03226 l 0.17871,0 0.53321,0.88184 c 0.35536,0.8814 0.5332,2.71671 0.5332,5.50783 0,2.20351 -0.0603,4.18741 -0.17871,5.95021 -0.1185,1.76281 -0.17578,3.23106 -0.17578,4.40626 -0.23691,5.87604 -0.59258,11.67912 -1.06641,17.40825 -16.11012,7.78575 -29.96932,16.52533 -41.57808,26.22079 -11.4903,9.69546 -17.23534,21.44727 -17.23534,35.25595 0,14.3963 5.38938,21.59478 16.16893,21.59478 8.52888,0 20.73029,-4.7019 36.60348,-14.10354 l -1.42382,18.50981 c -0.35536,3.96633 1.66103,5.95021 6.04394,5.95021 1.42147,0 2.84121,-0.22141 4.2627,-0.66211 1.53993,-0.4407 2.72449,-0.95342 3.55369,-1.54101 1.06611,-0.73452 2.01554,-1.46864 2.84472,-2.20314 2.96142,-2.79111 4.44141,-5.4363 4.44141,-7.93361 0,-1.61592 -0.82891,-3.01134 -2.48731,-4.18654 0,-5.28843 0.41299,-11.67705 1.24219,-19.169 l 1.06641,-1.32423 0.71192,-1.10155 c 0.82918,-2.05662 1.24218,-3.59769 1.24218,-4.626 0,-1.46901 -0.65108,-2.64594 -1.9541,-3.52734 0.35537,-2.64423 0.77129,-6.09636 1.24512,-10.35648 0.47382,-6.90435 0.88682,-11.82471 1.24218,-14.76273 1.65839,-20.71304 2.7254,-36.43264 3.19922,-47.15639 l 0.17871,-6.16996 c 0,-6.31672 -0.94943,-11.08852 -2.84472,-14.32033 -1.77686,-3.37874 -5.33058,-5.06838 -10.66113,-5.06838 z m 218.9968,0.88183 c -2.72448,0 -5.56689,0.95261 -8.52831,2.86232 -2.84295,1.90971 -4.44345,4.18783 -4.79882,6.83205 l -3.72949,30.18758 c -0.94764,8.07957 -2.60547,21.59385 -4.9746,40.54407 -2.25068,18.80331 -4.38467,35.55125 -6.39843,50.24135 -0.23691,1.90971 0.1188,3.37795 1.06641,4.40626 1.06611,0.8814 2.54608,1.32129 4.44139,1.32129 2.84295,0 5.62803,-0.95259 8.35253,-2.86231 2.84296,-2.05661 4.44052,-4.4804 4.79589,-7.27151 1.30302,-12.48657 2.90353,-26.37085 4.79883,-41.64855 2.01376,-15.42459 3.37617,-26.07228 4.08691,-31.94832 l 5.8623,-47.59877 c 0.2369,-1.61591 -0.1188,-2.86277 -1.06641,-3.74417 -0.94765,-0.8814 -2.24982,-1.32129 -3.9082,-1.32129 z m -226.10421,66.10567 -1.24218,15.20219 c -0.23691,2.79111 -0.53526,5.94901 -0.89062,9.47463 -0.23693,3.37872 -0.47208,6.90661 -0.70901,10.57912 -9.59498,5.72915 -16.16894,9.47258 -19.72262,11.23539 -3.90908,1.90971 -7.22763,2.86524 -9.95214,2.86524 -4.61981,0 -6.9287,-2.93649 -6.9287,-8.81253 0,-0.7345 0.1176,-1.98426 0.35448,-3.74706 0.8292,-5.14153 3.02052,-9.54921 6.57422,-13.22173 3.55371,-3.81941 8.292,-7.85709 14.21482,-12.11721 4.02752,-2.79111 10.12822,-6.61031 18.30175,-11.45804 z"
      style="font-style:normal;font-variant:normal;font-weight:normal;font-stretch:normal;font-size:131.91421509px;line-height:125%;font-family:'Sedgwick Ave';text-align:start;letter-spacing:0px;word-spacing:0px;writing-mode:lr-tb;text-anchor:start;fill:#6bbf47;fill-opacity:1;stroke:none;stroke-width:1px;stroke-linecap:butt;stroke-linejoin:miter;stroke-opacity:1" />
    <path
      style="opacity:1;fill:#3e863d;fill-opacity:1;fill-rule:evenodd"
      id="path4232"
      d="m 393.27774,374.78341 c -7.57868,-75.14763 -124.83515,-56.31236 -16.47305,60.97952 -0.18673,9.26941 13.23668,12.36468 10.74963,1.33509 -4.56282,-20.22968 48.88754,-29.71557 64.61772,-39.87938 27.0762,-17.49615 3.90074,-85.69239 -58.8943,-22.43523 l 0,0 z m -5.04728,3.75935 c -6.79465,-65.15425 -97.31469,-42.35115 -10.85022,52.88242 5.76821,-16.96498 47.90628,-21.57115 65.1909,-35.89063 14.55891,-12.05948 4.63701,-42.68985 -23.50278,-29.29466 -8.75218,4.16154 -19.07161,12.7931 -29.10607,30.42968 -3.90153,6.09054 -18.9113,-1.48226 -1.73232,-18.12692 l 0,0 z"
      class="cls-1" />
  </g>
</svg>
